<svg xmlns="http://www.w3.org/2000/svg" width="62.334" height="56.558" viewBox="0 0 62.334 56.558">
  <g id="Artwork_1" data-name="Artwork 1" transform="translate(31.167 28.279)">
    <g id="Group_982" data-name="Group 982" transform="translate(-31.167 -28.279)">
      <g id="Group_980" data-name="Group 980" transform="translate(8.437)">
        <path id="Path_1853" data-name="Path 1853" d="M123.4,37.48a12.569,12.569,0,0,0,2.415-2.326,22.485,22.485,0,0,0,3.711-6c.517-1.258.853-2.59,1.3-3.879a15.893,15.893,0,0,1,1.165-2.64c.059-.1.1-.277.247-.258s.148.193.191.307a8.155,8.155,0,0,1,.253,4.415,22.6,22.6,0,0,1-1.732,5.042.594.594,0,0,1-.222.305,11.964,11.964,0,0,0-3.521,3.768c-.552.789-1.1,1.584-1.617,2.392a13.014,13.014,0,0,1-6.7,5.1,22.156,22.156,0,0,1-11.014.954,23.9,23.9,0,0,1-13.741-6.584A21.4,21.4,0,0,1,87.583,21,24.23,24.23,0,0,1,95.365,4.03,19.633,19.633,0,0,1,101.647.085a.757.757,0,0,1,.7,0,4.5,4.5,0,0,0,1.942.166c-1.073.367-2.012.712-2.944,1.077a12.888,12.888,0,0,0-3.052,2.106,20.9,20.9,0,0,0-8.4,14.61A21.465,21.465,0,0,0,95.882,36.29a15.738,15.738,0,0,0,3.6,2.8,4.9,4.9,0,0,0,1.389.757c.041.123.158.152.256.2,5.647,2.644,11.38,3.116,17.212.64a15.545,15.545,0,0,0,4-2.364A3.271,3.271,0,0,0,123.4,37.48Z" transform="translate(-87.547 0)" fill="#00178d"/>
        <g id="Group_979" data-name="Group 979" transform="translate(6.319 9.37)">
          <path id="Path_1854" data-name="Path 1854" d="M160.118,138.477a4.9,4.9,0,0,1-1.389-.757c1.032-1.123,2.167-2.143,3.238-3.226.153-.155.495-.317.341-.542-.118-.172-.39.093-.593.163-.227.078-.447.179-.67.268a.425.425,0,0,1-.455-.035c-.166-.134-.136-.308-.088-.486a3.354,3.354,0,0,1,.751-1.328,14.029,14.029,0,0,1,4.027-3.011,11.583,11.583,0,0,0,3.064-2.384.686.686,0,0,0-.435.034,3.769,3.769,0,0,1-.793.19c-.337.044-.708.071-.9-.286-.2-.372.076-.641.293-.891a14.439,14.439,0,0,1,2.156-1.841,5.467,5.467,0,0,0,1.268-1.161l.034-.094-.108.016a23.383,23.383,0,0,0-2.425.579,6.762,6.762,0,0,1-1.517.234c-.142,0-.3.018-.387-.132-.1-.169,0-.312.095-.44a12.344,12.344,0,0,1,1.237-1.2l.111-.115c-.071-.065-.134-.034-.2.016-1.132.287-1.132.287-1.483-.86-.234-.764-.231-.759.478-1.139a8.3,8.3,0,0,0,.733-.459.586.586,0,0,0,.327-.55c-.034-.265-.272-.335-.486-.406-.137-.045-.282-.065-.419-.11s-.3-.142-.265-.3c.1-.471-.2-.473-.527-.518a3.789,3.789,0,0,1-1.164-.285c-.436-.212-.463-.461-.049-.726a8.759,8.759,0,0,1,.947-.468c.124-.06.283-.055.406-.263-.374-.118-.728-.232-1.084-.34a36.477,36.477,0,0,1-6.753-2.508,8.671,8.671,0,0,1-2.222-1.667,10.805,10.805,0,0,0-1.825-1.7c-.164-.108-.347-.256-.234-.466s.346-.092.516-.038a12.439,12.439,0,0,1,2.6,1.339,31.832,31.832,0,0,1,3.227,2.184,7.423,7.423,0,0,0,3.829,1.534,15.938,15.938,0,0,1,2.5.474,2.507,2.507,0,0,1,.917.408.591.591,0,0,1,.2.727c-.049.14-.294.23-.135.426.183.226.356.486.72.294a1.05,1.05,0,0,1,.283-.051c.741-.143.759-.143.745.619-.007.384.115.36.42.268.552-.167,1.025-.6,1.658-.508.059.008.137-.074.2-.124a21.686,21.686,0,0,1,7.567-3.68c2.609-.789,5.265-1.423,7.822-2.385a.392.392,0,0,1,.414.014,6.062,6.062,0,0,1-1.521,1.235,32.729,32.729,0,0,1-3.993,1.4,16.552,16.552,0,0,0-2.765,1.107,2.263,2.263,0,0,0-.707.49c-.05.039-.166.056-.1.143.051.067.128,0,.184-.049a8.617,8.617,0,0,0,1.246-.5c.206-.079.476-.228.588.053.1.251-.2.331-.377.407a49.377,49.377,0,0,0-5.628,3.218c.273-.1.542-.214.819-.3a.39.39,0,0,1,.48.112.417.417,0,0,1-.042.454,3.145,3.145,0,0,1-.965,1.057c-.582.427-1.172.843-1.756,1.267-.084.061-.228.115-.158.253.048.094.171.064.264.048.237-.041.472-.1.709-.133a.477.477,0,0,1,.487.13c.138.178.01.336-.073.486a5.577,5.577,0,0,1-1.269,1.436c-.584.515-1.186,1.01-1.781,1.514a.168.168,0,0,0,.251.071,7.152,7.152,0,0,1,1.433-.395c.5-.119.719.115.653.632a2.878,2.878,0,0,1-.914,1.653c-.121.124-.233.258-.346.384a7.774,7.774,0,0,0,2.717,1.2c-.255.307-.563.476-.63.83-.056.294-.064.458.332.383a10.121,10.121,0,0,1,1.747-.268c-.244.354-.553.579-.654.946-.127.462-.054.587.412.685a15.931,15.931,0,0,1,2.983.92c.153.065.384.1.375.319-.011.26-.25.108-.379.161-.321.13-.12.256.012.363.711.575,1.432,1.138,2.139,1.718a29.273,29.273,0,0,1,2.23,1.9,3.261,3.261,0,0,1-1.065.842c-1.458-1.33-2.961-2.606-4.493-3.852a3.977,3.977,0,0,0-3.192-.851c-.911.115-.911.107-.723-.787,0-.023-.022-.053-.034-.079a3.951,3.951,0,0,1-2.217.481c-.976-.117-1.2-.608-.611-1.39.133-.178.312-.322.458-.492.121-.14.329-.2.408-.554a19.245,19.245,0,0,0-5.984,3.506c.246.152.422-.116.681,0a14.067,14.067,0,0,0-2.527,2.169C162.266,136.224,161.194,137.353,160.118,138.477Zm2.351-4.567-.034-.062c-.011.011-.032.024-.03.032a.3.3,0,0,0,.03.065Z" transform="translate(-153.118 -108)" fill="#c91103"/>
          <path id="Path_1855" data-name="Path 1855" d="M309.477,100.72c.168.157.28.057.4.027.4-.105.636.052.551.438a5.718,5.718,0,0,1-.976,2.382c-.135.172-.339.773-.708.147-.012-.02-.06-.03-.089-.026-.651.091-.61-.319-.554-.752.043-.334.066-.67.1-1,.023-.218.014-.416-.218-.533-.345-.173-.319-.448-.173-.734.13-.254.281-.5.448-.787-.315.037-.579.091-.844.095-.409.006-.551-.183-.455-.585a2.538,2.538,0,0,1,1.265-1.623,4.134,4.134,0,0,1,1.639-.522c.585-.068.819.209.619.759a1.849,1.849,0,0,0,.226,1.385.454.454,0,0,1-.25.683A4.2,4.2,0,0,0,309.477,100.72Z" transform="translate(-292.106 -97.231)" fill="#c91103"/>
        </g>
      </g>
      <g id="Group_981" data-name="Group 981" transform="translate(0 49.188)">
        <path id="Path_1856" data-name="Path 1856" d="M0,518.263l3.3-7.253H5.661l1,7.253H4.7l-.107-1.152H2.411l-.469,1.152Zm3.114-2.85h1.3l-.2-2.792Z" transform="translate(0 -510.952)" fill="#c91103"/>
        <path id="Path_1857" data-name="Path 1857" d="M80.548,517.774a2.478,2.478,0,0,1-1.928-.693,2.7,2.7,0,0,1-.629-1.884q0-.312.029-.659t.088-.717a6.628,6.628,0,0,1,.547-1.9,2.633,2.633,0,0,1,1.005-1.137,3.047,3.047,0,0,1,1.591-.381,5.936,5.936,0,0,1,1.508.161,5.111,5.111,0,0,1,.913.317l-.244,1.5a7.314,7.314,0,0,0-.888-.2,5.735,5.735,0,0,0-.937-.083,2.753,2.753,0,0,0-.566.054.885.885,0,0,0-.449.249,1.624,1.624,0,0,0-.342.605,6.711,6.711,0,0,0-.264,1.132q-.049.332-.083.6a3.792,3.792,0,0,0-.034.473.784.784,0,0,0,.259.654,1.556,1.556,0,0,0,.932.205q.615,0,1.005-.034t.8-.073l-.234,1.493a4.021,4.021,0,0,1-1.044.254A9.719,9.719,0,0,1,80.548,517.774Z" transform="translate(-70.475 -510.404)" fill="#c91103"/>
        <path id="Path_1858" data-name="Path 1858" d="M141.3,518.263l.879-5.554h-1.8l.273-1.7h5.486l-.273,1.7h-1.8l-.879,5.554Z" transform="translate(-126.854 -510.952)" fill="#c91103"/>
        <path id="Path_1859" data-name="Path 1859" d="M196.8,518.263l1.152-7.253h1.894l-1.152,7.253Z" transform="translate(-177.832 -510.952)" fill="#c91103"/>
        <path id="Path_1860" data-name="Path 1860" d="M233.031,517.774a5.237,5.237,0,0,1-1.044-.1,2.078,2.078,0,0,1-.83-.356,1.645,1.645,0,0,1-.542-.727,3.257,3.257,0,0,1-.19-1.21q0-.332.039-.747t.107-.805a7.155,7.155,0,0,1,.434-1.645,2.9,2.9,0,0,1,.713-1.049,2.575,2.575,0,0,1,1.044-.561,5.376,5.376,0,0,1,1.44-.171,5.11,5.11,0,0,1,1.03.1,2.007,2.007,0,0,1,.825.366,1.768,1.768,0,0,1,.552.761,3.461,3.461,0,0,1,.2,1.284q0,.3-.039.713t-.107.81a7.09,7.09,0,0,1-.434,1.679,2.65,2.65,0,0,1-.708,1.015,2.445,2.445,0,0,1-1.044.5A6.5,6.5,0,0,1,233.031,517.774Zm.293-1.708a1.427,1.427,0,0,0,.61-.117,1.015,1.015,0,0,0,.41-.351,2.036,2.036,0,0,0,.263-.586,6.108,6.108,0,0,0,.171-.82q.059-.371.1-.713a5.068,5.068,0,0,0,.039-.547,1.09,1.09,0,0,0-.1-.517.521.521,0,0,0-.312-.244,1.918,1.918,0,0,0-.566-.068,1.651,1.651,0,0,0-.586.093.913.913,0,0,0-.41.312,1.944,1.944,0,0,0-.283.6,6.8,6.8,0,0,0-.2.966q-.059.351-.1.683a4.74,4.74,0,0,0-.039.527.934.934,0,0,0,.1.464.545.545,0,0,0,.322.244A1.932,1.932,0,0,0,233.324,516.065Z" transform="translate(-208.219 -510.404)" fill="#c91103"/>
        <path id="Path_1861" data-name="Path 1861" d="M326.785,517.774q-.586,0-1.049-.044t-.815-.107q-.351-.063-.605-.132l.234-1.5q.459.039,1.04.063t1.147.024a3.153,3.153,0,0,0,.591-.044.62.62,0,0,0,.322-.146.5.5,0,0,0,.132-.278l.019-.107a.287.287,0,0,0,.01-.068v-.058a.279.279,0,0,0-.161-.273,1.279,1.279,0,0,0-.522-.078h-.391a1.889,1.889,0,0,1-1.381-.483,1.643,1.643,0,0,1-.493-1.225,3.1,3.1,0,0,1,.029-.42l.088-.556a2.307,2.307,0,0,1,.473-1.127,2.007,2.007,0,0,1,.937-.615,4.345,4.345,0,0,1,1.352-.19q.264,0,.537.015t.556.049q.283.034.576.088t.6.132l-.234,1.5q-.351-.039-.757-.054t-.8-.024q-.4-.01-.717-.01a1.34,1.34,0,0,0-.361.044.607.607,0,0,0-.259.142.472.472,0,0,0-.132.273l-.02.107a.612.612,0,0,0-.015.083.731.731,0,0,0,0,.083.375.375,0,0,0,.117.3.573.573,0,0,0,.381.1h.43a2.153,2.153,0,0,1,1.5.473,1.552,1.552,0,0,1,.517,1.2,2.7,2.7,0,0,1-.029.381l-.107.683a2.3,2.3,0,0,1-.366.986,1.715,1.715,0,0,1-.839.61A4.485,4.485,0,0,1,326.785,517.774Z" transform="translate(-293.06 -510.404)" fill="#c91103"/>
        <path id="Path_1862" data-name="Path 1862" d="M382.553,518.263l1.152-7.253h2.987a2.78,2.78,0,0,1,1.04.186,1.489,1.489,0,0,1,.737.644,2.554,2.554,0,0,1,.273,1.3,2.707,2.707,0,0,1-.034.385q-.034.229-.063.415a3.441,3.441,0,0,1-.332,1.1,2.383,2.383,0,0,1-.556.717,2.065,2.065,0,0,1-.693.4,2.39,2.39,0,0,1-.752.122,5.577,5.577,0,0,1-.878-.068,3.421,3.421,0,0,1-.634-.146l-.351,2.206Zm2.479-3.69h1.005a.58.58,0,0,0,.366-.117.8.8,0,0,0,.239-.312,1.486,1.486,0,0,0,.117-.42c.013-.084.024-.166.034-.244a1.559,1.559,0,0,0,.015-.156.724.724,0,0,0-.122-.478.467.467,0,0,0-.366-.137h-1Z" transform="translate(-345.686 -510.952)" fill="#c91103"/>
        <path id="Path_1863" data-name="Path 1863" d="M450.389,517.774a5.236,5.236,0,0,1-1.044-.1,2.079,2.079,0,0,1-.83-.356,1.645,1.645,0,0,1-.542-.727,3.257,3.257,0,0,1-.19-1.21q0-.332.039-.747t.107-.805a7.156,7.156,0,0,1,.434-1.645,2.9,2.9,0,0,1,.713-1.049,2.575,2.575,0,0,1,1.044-.561,5.376,5.376,0,0,1,1.44-.171,5.11,5.11,0,0,1,1.03.1,2.007,2.007,0,0,1,.825.366,1.768,1.768,0,0,1,.552.761,3.46,3.46,0,0,1,.2,1.284q0,.3-.039.713t-.107.81a7.091,7.091,0,0,1-.434,1.679,2.651,2.651,0,0,1-.708,1.015,2.445,2.445,0,0,1-1.044.5A6.5,6.5,0,0,1,450.389,517.774Zm.293-1.708a1.427,1.427,0,0,0,.61-.117,1.016,1.016,0,0,0,.41-.351,2.036,2.036,0,0,0,.263-.586,6.108,6.108,0,0,0,.171-.82q.059-.371.1-.713a5.072,5.072,0,0,0,.039-.547,1.089,1.089,0,0,0-.1-.517.521.521,0,0,0-.312-.244,1.918,1.918,0,0,0-.566-.068,1.652,1.652,0,0,0-.586.093.913.913,0,0,0-.41.312,1.944,1.944,0,0,0-.283.6,6.8,6.8,0,0,0-.2.966q-.059.351-.1.683a4.759,4.759,0,0,0-.039.527.934.934,0,0,0,.1.464.545.545,0,0,0,.322.244A1.932,1.932,0,0,0,450.682,516.065Z" transform="translate(-404.63 -510.404)" fill="#c91103"/>
        <path id="Path_1864" data-name="Path 1864" d="M516.25,518.263l1.152-7.253h2.85a3.354,3.354,0,0,1,.913.112,1.692,1.692,0,0,1,.659.342,1.449,1.449,0,0,1,.4.586,2.388,2.388,0,0,1,.137.854q0,.147-.015.307t-.044.337a2.759,2.759,0,0,1-.229.82,2.2,2.2,0,0,1-.356.542,2.1,2.1,0,0,1-.39.337q-.2.127-.332.205l.81,2.811h-1.923l-.615-2.5h-.722l-.4,2.5Zm2.528-4h.791a.966.966,0,0,0,.473-.093.564.564,0,0,0,.239-.273,1.8,1.8,0,0,0,.117-.454.588.588,0,0,0,.02-.142v-.122a.576.576,0,0,0-.049-.249.346.346,0,0,0-.171-.161.765.765,0,0,0-.327-.059h-.849Z" transform="translate(-466.498 -510.952)" fill="#c91103"/>
        <path id="Path_1865" data-name="Path 1865" d="M587.967,518.263l.879-5.554h-1.8l.273-1.7h5.486l-.273,1.7h-1.8l-.878,5.554Z" transform="translate(-530.474 -510.952)" fill="#c91103"/>
      </g>
    </g>
  </g>
</svg>
